<svg version="1.1"
  xmlns="http://www.w3.org/2000/svg" viewBox="0 0 213.1549815498156 206.5" width="213.1549815498156" height="206.5">
  <g>
    <g transform="translate(105.2611033837286 18.811338646385423) rotate(0 2.8052655599214518 87.87490110478544)">
      <path d="M-1.6360622706008594 -1.609096646308899 C-30.340793714525443 37.68275319782047, -57.30586095790355 77.02351096331026, -85.20519816875458 119.72126611374355 M-2.015687769849364 -0.5115708708763123 C-26.844830855357472 33.15626572848009, -51.705820215907266 67.5123794950173, -86.18856626749039 119.55977203749157 M-86.4073771238327 117.34092553757168 C-63.5452146364681 137.81638201096644, -37.06074548378354 155.84454228717112, -6.393055215972894 175.07810661955165 M-86.07649046182632 119.5709872474525 C-69.46585324646037 131.26547050907692, -51.12552883972217 144.79378045392437, -6.490313008922571 176.34718314571666 M-7.709491983551019 177.35889885587977 C0.3006210247464187 149.20629598698594, 9.436866336944508 121.34691645126614, 21.115844810580864 90.95972245335044 M-6.938295797008508 175.7700194494276 C0.4045632746141532 148.2831033812374, 9.539244442867751 123.1144560930781, 20.13644781169857 90.48718940615119 M18.90390023050274 90.18289750217856 C38.33855590167647 88.91776144408483, 62.08478141137282 88.23374233096047, 78.7710377734526 86.88153712316368 M18.769031429862633 89.93102180361213 C33.02075218959784 88.4376723993132, 46.96980023057556 88.55369356399179, 77.37758018191894 85.29013620181892 M77.88233538087448 84.3283449844918 C82.77752030118475 60.56816459294262, 84.77437069157064 37.5857986350055, 92.01790824367556 7.417654415676163 M77.231355206333 84.86433969302986 C82.31923336414555 60.15853502642852, 86.2993632221722 35.58098198626374, 89.72729679777179 9.312549194404648 M89.67119803859744 9.369345089504288 C52.12439247246287 5.110670135187738, 16.363295138758872 3.255382856490842, -1.0750042261672657 1.2237662076950073 M91.44288822843585 8.626498779365585 C61.38252449970318 5.992861939760479, 31.24074783907958 2.4462954618522987, -2.884534663159911 -0.6199578642845154" stroke="#000000" stroke-width="2" fill="none"></path>
    </g>
  </g>
  <g transform="translate(91.03505535055251 10) rotate(0 10.190036900369023 8.249077490774908)">
    <path d="M12.882219599960234 0.3304975431222621 C15.000870209838247 0.8396873489404458, 17.999850887033276 2.055807244416206, 19.37913210911261 3.449606337091775 C20.758413331191946 4.843405429767344, 21.482647571029492 6.954726422886769, 21.15790693243625 8.693292099175677 C20.83316629384301 10.431857775464586, 19.36448774804206 12.637635319567101, 17.43068827755316 13.881000394825223 C15.49688880706426 15.124365470083346, 11.74152070823784 15.956786246867988, 9.555110109502856 16.153482550724412 C7.368699510767872 16.350178854580836, 5.823217469282502 16.24971971876886, 4.312224685143257 15.06117821796376 C2.8012319010040123 13.872636717158661, 0.9695819523758515 10.709789386753219, 0.48915340466738577 9.022233545893815 C0.008724856958919947 7.334677705034412, 0.47271132387255765 6.250909161583798, 1.4296533988924622 4.93584317280734 C2.386595473912367 3.6207771840308824, 4.00674378578389 1.888437442701158, 6.230805854786813 1.1318376132350707 C8.454867923789736 0.3752377837689833, 13.341344329775488 0.39954577978778233, 14.774025812910002 0.39624419601081584 C16.206707296044517 0.39294261223384935, 15.108746121869487 0.899732298802665, 14.826894753593898 1.1120281105732719 M9.253250801579684 0.04354397473098537 C11.175873617785541 0.051195819968765065, 14.350522519091198 0.49064383187827565, 16.250139730387346 1.4473492402362087 C18.149756941683492 2.404054648594142, 20.351028832820305 3.971982428152648, 20.65095406935657 5.7837764248785835 C20.950879305892833 7.595570421604519, 19.188870080047735 10.47464696078398, 18.049691149604925 12.31811322059182 C16.910512219162115 14.161579480399661, 15.510203940907669 16.245947674558703, 13.815880486699706 16.844573983725628 C12.121557032491744 17.443200292892552, 9.74986951934136 16.443830513464597, 7.883750424357147 15.909871075593376 C6.017631329372935 15.375911637722156, 3.7173726785279673 15.161009964346162, 2.619165916794435 13.640817356498308 C1.5209591550609025 12.120624748650455, 1.0835161888639617 8.733891086765972, 1.2945098539559527 6.788715428506251 C1.5055035190479438 4.843539770246529, 2.4757972614838817 3.1917326780139295, 3.885127907346381 1.9697634069399754 C5.29445855320888 0.7477941358660216, 8.943824301223474 -0.133992754607885, 9.75049372913095 -0.5431001979374717 C10.557163157038426 -0.9522076412670584, 8.457049791874057 -0.7600496626770503, 8.725144474791241 -0.48488125303754437" stroke="none" stroke-width="0" fill="#343a40"></path>
    <path d="M12.836113653099718 0.408566084002695 C14.73373060755457 0.7476753761303034, 16.72059448620809 1.6955825111841756, 18.055507657348613 2.9492161152204197 C19.390420828489138 4.202849719256664, 20.86985073936784 6.176228081560468, 20.845592679942854 7.93036770822016 C20.821334620517867 9.684507334879854, 19.36482111200804 11.98298659333462, 17.909959300798693 13.474053875178576 C16.455097489589345 14.965121157022534, 14.453554855222155 16.498786020758008, 12.116421812686763 16.876771399283903 C9.779288770151371 17.2547567778098, 5.934511786232517 16.79972357620291, 3.8871610455863417 15.741966146333958 C1.8398103049401664 14.684208716465005, 0.269112394553286 12.442263613058449, -0.1676826311902886 10.530226820070183 C-0.6044776569338632 8.618190027081917, 0.35483683699076807 5.7643626975859705, 1.2663908911248942 4.269745388404363 C2.1779449452590205 2.775128079222756, 2.9660531926291287 2.26378643343999, 5.301641693614468 1.562522964980542 C7.637230194599807 0.8612594965210941, 13.399458540792129 -0.15893123032029077, 15.27992189703693 0.06216457764767558 C17.16038525328173 0.28326038561564193, 16.567871787862217 2.534868371188569, 16.584421831083276 2.88909781278834 M16.485088963847126 0.4053307823583179 C17.968184902314746 0.8858844142967439, 18.187148656739964 3.247380912915144, 18.504455752153994 5.2125636751266455 C18.821762847568024 7.177746437338147, 18.683503189097767 10.75754590587393, 18.3889315363313 12.196427355627325 C18.09435988356483 13.63530880538072, 18.32514155206624 13.35850436647195, 16.737025835555194 13.845852373647022 C15.14891011904415 14.333200380822094, 11.34323857698885 15.191237088022973, 8.860237237265036 15.120515398677755 C6.377235897541221 15.049793709332537, 3.144249557464062 14.63431422531671, 1.839017797212299 13.421522237575715 C0.5337860369605361 12.208730249834721, 0.8827766821041396 9.315373393533209, 1.0288466757544583 7.84376347223179 C1.174916669404777 6.372153550930371, 1.4621914441867496 5.760322996805847, 2.715437759114211 4.591862709767201 C3.968684074041673 3.423402422728555, 6.664588466448946 1.3444124476690527, 8.548324565319227 0.8330017499999123 C10.432060664189507 0.321591052330772, 13.10736331058411 1.7129744984504678, 14.017854352335895 1.52339852375236 C14.92834539408768 1.3338225490542521, 14.066751088103377 -0.5212629013461386, 14.011270815829938 -0.30445409818873514" stroke="#343a40" stroke-width="2" fill="none"></path>
  </g>
  <g transform="translate(182.77490774907756 19.30811808118068) rotate(0 10.190036900369023 8.249077490774908)">
    <path d="M8.92218212089606 0.136302165785386 C10.740107477376132 -0.49365881367958153, 13.062260739202015 -0.7383472148961981, 14.819662100090262 0.13638316530378614 C16.577063460978508 1.0111135455037705, 18.665560562031576 3.7096006362620395, 19.46659028622554 5.3846844469852915 C20.267620010419503 7.059768257708543, 20.339637318287128 8.401884467569719, 19.625840445254042 10.186886029643297 C18.912043572220956 11.971887591716875, 16.91856912930984 14.935829682898055, 15.183809048027015 16.094693819426762 C13.449048966744192 17.253557955955472, 11.237143639452576 17.35326874803135, 9.217279957557098 17.140070848815544 C7.19741627566162 16.926872949599737, 4.461515486965676 16.281910840106224, 3.064626956654152 14.815506424131918 C1.6677384263426276 13.34910200815761, 1.00350976863159 10.1280547520633, 0.8359487756879513 8.341644352969698 C0.6683877827443127 6.5552339538760975, 0.9201948742930903 5.422706780933182, 2.05926099899232 4.097044029570314 C3.19832712369155 2.7713812782074454, 6.369477153194292 1.0718884135928617, 7.67034552388333 0.38766784479248706 C8.971213894572367 -0.29655272400788746, 9.655832921161311 0.04826353118333637, 9.864471223126547 -0.008279383231933224 M10.89524155635703 1.068428586731006 C13.1708654651787 0.9814804822558608, 16.900055901653115 0.8382085339899674, 18.41370654156804 1.861018824020448 C19.927357181482964 2.8838291140509282, 19.829813252304167 5.599169830613327, 19.97714539584658 7.2052903269138895 C20.124477539388995 8.811410823214452, 20.42536734193992 9.943750580661, 19.297699402822516 11.497741801823821 C18.17003146370511 13.051733022986642, 15.374686467307097 15.997949319729337, 13.211137761142155 16.529237653890817 C11.047589054977212 17.060525988052298, 8.393879396579775 15.660508867429403, 6.316407165832861 14.685471806792707 C4.238934935085947 13.710434746156011, 1.6916242807663342 12.048191525859519, 0.7463043766606692 10.679015290070637 C-0.19901552744499584 9.309839054281756, -0.07470334720690797 8.18104053547745, 0.644487741198871 6.470414392059416 C1.36367882960465 4.759788248641381, 3.3711913817194556 1.320941894217992, 5.061450907095343 0.4152584295624271 C6.75171043247123 -0.49042503509313795, 9.99729225043832 1.1229773168338093, 10.786044893454195 1.0363136041260255 C11.574797536470069 0.9496498914182415, 9.898760882341007 -0.30647151366242487, 9.793966765190584 -0.10472384668427637" stroke="none" stroke-width="0" fill="#343a40"></path>
    <path d="M5.002759881557207 0.5654353695204914 C6.985598515808982 -0.4430912889821852, 11.00995998082672 -0.2856569953927394, 13.065414914405231 0.07879731828908199 C15.120869847983743 0.4432516319709034, 16.132241501505238 1.2383888091476727, 17.335489483028276 2.75216125161142 C18.538737464551314 4.265933694075167, 20.303720863707923 7.165901518284396, 20.28490280354346 9.161431973071565 C20.266084743378997 11.156962427858735, 18.811980769911806 13.438093688255881, 17.222581122041504 14.725343980334436 C15.633181474171202 16.012594272412993, 12.924769969163782 16.965269039140992, 10.748504916321656 16.8849337255429 C8.57223986347953 16.80459841194481, 5.936295640789243 15.202061792339858, 4.164990804988743 14.243332098745888 C2.393685969188242 13.284602405151919, 0.6278911349400773 12.61609623439603, 0.12067590151865026 11.132555563979077 C-0.3865393319027768 9.649014893562123, 0.24404639554173946 7.056960570736493, 1.1216994044601805 5.342088076244171 C1.9993524133786216 3.62721558175185, 4.281206254604078 1.6730649107234488, 5.386593955029296 0.8433205970251487 C6.491981655454514 0.013576283326848682, 7.447061844531823 0.1756544982122555, 7.754025607011487 0.36362219405437113 M7.773860918121639 0.44615680253026646 C9.807485796987264 0.2300000996088062, 13.738822908805075 1.1607523470126493, 15.537482470970097 1.949682129174417 C17.336142033135122 2.738611911336185, 17.880133274390374 3.640841024630981, 18.56581829111178 5.179735495500873 C19.251503307833183 6.718629966370766, 20.30923181875908 9.370831631499472, 19.65159257129853 11.183048954393772 C18.993953323837978 12.995266277288072, 16.68431993547376 15.389519003257067, 14.619982806348467 16.053039432866672 C12.555645677223175 16.716559862476277, 9.314914382600929 15.658890419695151, 7.265569796546778 15.1641715320514 C5.216225210492627 14.669452644407649, 3.3750140036344387 14.15527468508859, 2.323915290023562 13.084726107004162 C1.2728165764126853 12.014177528919733, 0.9339434492029869 10.295780646104774, 0.9589775148815178 8.740880063544827 C0.9840115805600488 7.18597948098488, 0.9923084500281167 5.000489825424822, 2.474119684094748 3.7553226116444813 C3.9559309181613793 2.510155397864141, 8.838366220984566 1.7694366138030164, 9.849844919281304 1.269876780862786 C10.861323617578043 0.7703169479225556, 8.715091097758947 0.833398347118187, 8.542991873875176 0.7579636140030992" stroke="#343a40" stroke-width="2" fill="none"></path>
  </g>
  <g transform="translate(172.12915129151247 92.89114391143914) rotate(0 10.190036900369023 8.249077490774908)">
    <path d="M9.968712276951159 -0.19673076049209826 C11.86971137018578 -0.19985992141052625, 14.572197250309985 1.1088365256038901, 16.313445430747365 2.4488378590026496 C18.054693611184742 3.788839192401409, 20.143751083126613 6.134827878784227, 20.41620135957543 7.843277239900458 C20.68865163602425 9.55172660101669, 19.041329494348343 11.432337987145868, 17.94814708944027 12.699534025700036 C16.854964684532195 13.966730064254204, 15.8442136760337 14.990914940177124, 13.857106930126996 15.44645347122547 C11.870000184220292 15.901992002273815, 7.992967706839934 16.061940713219403, 6.02550661400004 15.432765211990112 C4.058045521160146 14.803589710760823, 3.101742792752315 13.114216938670927, 2.0523403730876293 11.671400463849732 C1.0029379534229435 10.228583989028538, -0.5826418407546006 8.368025007010381, -0.27090790398807485 6.77586636306295 C0.040826032778450816 5.183707719115519, 2.061878711318255 3.1418469791780326, 3.922743993686783 2.1184486001651495 C5.783609276055311 1.0950502211522664, 9.688116182587427 1.0419494899756474, 10.894283790223094 0.6354760889856514 C12.10045139785876 0.22900268799565549, 10.971685371456562 -0.2759282609448627, 11.159749639500786 -0.3203918057748263 M12.781314698096283 -0.12956935851479745 C14.932746484275029 0.037028436246702906, 17.903837415603984 1.8304409921921538, 19.012949424283505 3.2350914324959197 C20.122061432963026 4.639741872799686, 19.792371696705146 6.2538240257154545, 19.43598675017341 8.298333283307796 C19.079601803641673 10.342842540900138, 18.404812357807458 14.351387935050752, 16.874639745093074 15.502146978049966 C15.344467132378687 16.65290602104918, 12.59463318764534 15.163455585463096, 10.254951073887096 15.202887541303076 C7.915268960128852 15.242319497143056, 4.416284494737361 16.464606642284732, 2.8365470625436107 15.738738713089845 C1.2568096303498597 15.012870783894957, 0.7997082510730552 12.930738976177976, 0.7765264807245895 10.847679966133754 C0.7533447103761238 8.764620956089532, 1.5052898464214575 4.960348816241212, 2.6974564404528163 3.2403846528245177 C3.889623034484175 1.5204204894078233, 6.082191698718992 0.7336546535696166, 7.929526044912743 0.5278949856335879 C9.776860391106494 0.3221353176975593, 12.71621279755609 2.031349290567691, 13.781462517615324 2.005826645208346 C14.84671223767456 1.9803039998490017, 14.45033989734498 0.24898764511803742, 14.32102436526815 0.3747591134775208" stroke="none" stroke-width="0" fill="#343a40"></path>
    <path d="M8.42411335255289 0.17605219530666893 C10.39793721908564 0.09379040327811754, 13.782629493121972 1.1179478001842584, 15.804794540121335 2.0716453368090075 C17.826959587120697 3.0253428734337566, 19.827210617730785 4.189351617331952, 20.55710363454907 5.898237415055163 C21.286996651367353 7.607123212778373, 21.043703302233585 10.729488040042447, 20.18415264103104 12.32496012314827 C19.324601979828497 13.920432206254091, 17.428317402971594 14.835593929054717, 15.399799667333806 15.47106991369009 C13.371281931696016 16.106545898325464, 10.269456487792391 16.601002334616343, 8.013046227204304 16.137816030960508 C5.7566359666162175 15.674629727304673, 3.31486411596995 14.183673709070277, 1.8613381038052825 12.691952091755077 C0.4078120916406147 11.200230474439877, -1.0481601713443296 8.858027976788094, -0.708109845783703 7.187486327069314 C-0.3680595202230763 5.516944677350533, 1.8815736976351123 3.8760179200048466, 3.9016400571690424 2.6687021934423907 C5.921706416702973 1.4613864668799346, 10.120914559449925 0.4773824687561615, 11.412288311419879 -0.05640803230542346 C12.703662063389832 -0.5901985333670084, 11.834037245316368 -0.7303822754653537, 11.649882568988758 -0.5340408129271195 M10.085841955976797 0.6155765191184646 C12.434267627079292 0.4916260798177287, 14.761662901629638 0.7726811294998635, 16.641267663079365 1.824038805432055 C18.52087242452909 2.8753964813642465, 20.92996334213384 5.351692782895212, 21.363470524675154 6.923722574711615 C21.79697770721647 8.495752366528018, 20.087163568098482 10.04427667048983, 19.24231075832727 11.256217556330473 C18.39745794855606 12.468158442171115, 18.08263500713413 13.174400829815017, 16.29435366604789 14.195367889755463 C14.50607232496165 15.21633494969591, 10.920401790771832 17.47395660068903, 8.512622711809833 17.382019915973153 C6.1048436328478335 17.290083231257277, 3.483650869769252 15.179216596957625, 1.8476791922758942 13.64374778146022 C0.21170751478253602 12.108278965962816, -1.4299501483019672 9.967242627696816, -1.3032073531503165 8.169207022988727 C-1.176464557998666 6.37117141828064, 0.9232136227343555 4.028043451413295, 2.6081359631857977 2.855534153211692 C4.29305830363724 1.6830248550100888, 7.5794900966326235 1.6391655907029792, 8.806326689558336 1.134151233779109 C10.033163282484049 0.6291368768552389, 10.011027700657394 -0.11321086965575144, 9.969155520740076 -0.17455198833152963" stroke="#343a40" stroke-width="2" fill="none"></path>
  </g>
  <g transform="translate(114.84132841328415 100.62546125461267) rotate(0 10.190036900369023 8.249077490774908)">
    <path d="M9.887875429435939 -0.5026753614159283 C11.996992544393176 -0.45716628333488724, 16.084652376106956 1.210033724680042, 17.95438257556261 2.6506565156228747 C19.824112775018268 4.091279306565707, 21.073637762949584 6.3241385522739675, 21.106256626169873 8.141061384241068 C21.138875489390163 9.95798421620817, 19.47278464581514 12.210697429302403, 18.15009575488434 13.55219350742548 C16.82740686395354 14.893689585548557, 14.998339559205506 15.734420992983138, 13.17012328058509 16.190037852979536 C11.341907001964673 16.645654712975936, 9.224903497808086 17.02804192581204, 7.1807980831618385 16.285894667403873 C5.136692668515591 15.543747408995706, 1.8935076837804279 13.444929160308922, 0.9054907927076066 11.73715430253054 C-0.08252609836521474 10.029379444752157, 0.7031481117837832 7.755338000652302, 1.2526967367249107 6.039245520733579 C1.802245361666038 4.323153040814856, 2.574005640203751 2.4904348150068882, 4.202782542354371 1.4405994230182015 C5.831559444504991 0.3907640310295146, 9.812655669768764 -0.2093349736801957, 11.025358149628634 -0.25976683119854194 C12.238060629488503 -0.31019868871688816, 11.615571097809875 0.8142556540121986, 11.478997421513583 1.1380082779081242 M7.128350196798638 -0.8084845340521722 C8.92106678892289 -1.3594555245749533, 12.195585832527847 -0.4803512274483204, 14.27139790120409 0.19540457171671566 C16.347209969880332 0.8711603708817517, 18.75331489541796 1.8815292690855012, 19.58322260885609 3.246050260938044 C20.41313032229422 4.610571252790587, 19.63187919752803 6.701712551177731, 19.250844181832854 8.38253052283197 C18.869809166137678 10.063348494486211, 18.697360601144542 11.774609833492445, 17.297012514685047 13.330958090863485 C15.896664428225554 14.887306348234524, 13.002016720944262 17.41655734130214, 10.848755663075893 17.720620067058206 C8.695494605207525 18.02468279281427, 6.307910947192415 16.66898380487452, 4.377446167474836 15.15533444539987 C2.4469813877572566 13.64168508592522, -0.23336132274672028 10.472210222300582, -0.7340330152295813 8.638723910210306 C-1.2347047077124422 6.805237598120031, 0.3729205248979177 5.494603493286648, 1.3734160125776693 4.154416572858217 C2.373911500257421 2.8142296524297867, 4.565680276001868 1.1689909781424248, 5.268939910848928 0.5976023876397232 C5.972199545695989 0.026213797137021433, 5.5119118369122555 0.7100410369809729, 5.592973821660031 0.7260850298420065" stroke="none" stroke-width="0" fill="#343a40"></path>
    <path d="M7.937957502730671 0.35543453651744805 C10.101389955575316 -0.15481080214047693, 14.314985771124196 0.30752740795765254, 16.341943698467713 1.0596705444789816 C18.36890162581123 1.8118136810003107, 19.532374415462606 3.147944324429373, 20.09970506679177 4.868293355645422 C20.667035718120935 6.588642386861471, 20.595349602752943 9.595000613723254, 19.74592760644269 11.381764731775274 C18.89650561013244 13.168528849827293, 16.840712238309486 14.635641747255384, 15.00317308893026 15.588878063957534 C13.165633939551034 16.542114380659683, 10.913324296736597 17.52153413970614, 8.720692710167334 17.10118263198817 C6.5280611235980714 16.6808311242702, 3.3142568455409362 14.52765856940994, 1.8473835695146796 13.066769017649715 C0.380510293488423 11.60587946588949, -0.06772131276061592 10.046868619254791, -0.08054694599020529 8.33584532142682 C-0.09337257921979465 6.62482202359885, -0.29685733158855276 4.142072279550477, 1.7704297701371434 2.800629230681891 C3.8377168718628396 1.4591861818133054, 10.235230093855092 0.5911870283412497, 12.323175664363973 0.28718702821530506 C14.411121234872853 -0.01681297191063963, 14.506733517396693 0.825956203028015, 14.298103193190425 0.9766292299262229 M10.711303852784607 1.0326646311373295 C12.465620270471325 1.1728867232458395, 14.640446129278564 0.6781928979242304, 16.13702365809735 1.9535682436786495 C17.63360118691613 3.2289435894330687, 19.34369088647165 7.014573057504014, 19.690769025697314 8.684916705663843 C20.03784716492298 10.355260353823672, 19.219303188775715 10.763814596419028, 18.219492493451334 11.97563013263762 C17.219681798126953 13.187445668856213, 15.586998436458238 15.395195901129272, 13.691904853751032 15.9558099229754 C11.796811271043826 16.51642394482153, 8.80073840334803 16.138099507998632, 6.848930997208092 15.339314263714389 C4.897123591068154 14.540529019430148, 3.2217683063561378 12.433421749003314, 1.9810604169114043 11.163098457269948 C0.7403525274666707 9.892775165536582, -0.823531909645118 9.128012738031437, -0.5953163394603092 7.717374513314191 C-0.3671007692755003 6.306736288596945, 1.6206064512939733 3.821166067224386, 3.3503538380202578 2.699269108966475 C5.080101224746542 1.577372150708564, 8.704391837427806 1.5125876280485415, 9.783167980897398 0.9859927637667241 C10.861944124366989 0.4593978994849066, 9.672439258930192 -0.28250040562218137, 9.823010698837804 -0.46030007672442963" stroke="#343a40" stroke-width="2" fill="none"></path>
  </g>
  <g transform="translate(10 130.15313653136525) rotate(0 10.190036900369023 8.249077490774908)">
    <path d="M7.209940913504868 -0.5794202558058448 C9.283110829702494 -1.3036649621551977, 12.208143943491423 -0.8244299705978019, 14.2247538101454 -0.1203454264499575 C16.241363676799374 0.5837391176978869, 18.391845676911867 2.044605251430518, 19.309600113428722 3.6450870090812213 C20.227354549945577 5.245568766731925, 20.315221142403395 7.544443858653173, 19.73128042924653 9.482545119454262 C19.147339716089668 11.42064638025535, 17.580067602771184 13.980408716469514, 15.805955834487541 15.273694573887756 C14.031844066203897 16.566980431306, 11.13208235718564 17.289410998091647, 9.08660981954467 17.24226026396372 C7.0411372819036995 17.19510952983579, 5.038676204746263 16.22066552464511, 3.5331206086417195 14.990790169120192 C2.027565012537176 13.760914813595274, 0.45922839707387036 11.617772051463955, 0.053276242917405625 9.863008130814208 C-0.3526759112390591 8.108244210164461, -0.5780305089771962 6.236577825799805, 1.0974076837029312 4.462206645221714 C2.772845876383059 2.6878354646436238, 8.209310228728553 -0.11106982358933859, 10.10590539899817 -0.7832189526543338 C12.002500569267786 -1.455368081719329, 12.54586884242591 0.19311018376653477, 12.476978705320628 0.42931187083174294 M10.322097901464678 0.03465473845650102 C12.326339767056261 -0.11331611719791068, 14.306633637953796 0.9014291857710939, 15.691648876503155 2.039097063071342 C17.076664115052512 3.17676494037159, 17.928775072698453 5.013149757795509, 18.63218933276083 6.860662002257989 C19.335603592823208 8.70817424672047, 20.790241540309797 11.83626912261275, 19.912134436877423 13.124170529846221 C19.03402733344505 14.412071937079693, 15.558443560122866 14.046317116045781, 13.363546712166583 14.588070445658815 C11.1686498642103 15.129823775271849, 8.52889246358195 16.832678626969674, 6.742753349139728 16.37469050752442 C4.956614234697506 15.916702388079166, 3.771809298408189 13.456451920634787, 2.6467120255132492 11.840141728987293 C1.5216147526183093 10.223831537339798, 0.13841622278552812 8.116751472450678, -0.007830288229911275 6.676829357639448 C-0.15407679924535067 5.236907242828218, 0.3258332469475078 4.454058145300713, 1.7692329594206129 3.200609040119912 C3.2126326718937177 1.9471599349391113, 7.290139437848607 -0.35718387649887484, 8.65256798660872 -0.8438652734453544 C10.014996535368832 -1.330546670391834, 9.57184650627083 0.12599402508803884, 9.943804251981286 0.28052065844103424" stroke="none" stroke-width="0" fill="#343a40"></path>
    <path d="M7.994523936388682 -0.31381396639149095 C9.903028095802853 -0.9140071153003956, 13.080436153642353 -0.7496834425233372, 14.894771751952318 0.060648791977381045 C16.709107350262283 0.8709810264780993, 18.114900450903324 2.950416066817753, 18.880537526248467 4.548179440612818 C19.64617460159361 6.145942814407884, 20.083004888944394 7.9074811265008975, 19.488594204023183 9.647229034747777 C18.894183519101972 11.386976942994657, 16.864777153967644 13.835679954295776, 15.314073416721204 14.9866668900941 C13.763369679474764 16.13765382589242, 12.350417342682839 16.76395533612596, 10.18437178054454 16.55315064953772 C8.01832621840624 16.34234596294948, 3.8717532575385016 14.879336611244641, 2.317800043891409 13.721838770564666 C0.7638468302443158 12.564340929884692, 0.8324161498866375 11.13245897713224, 0.860652498661981 9.608163605457872 C0.8888888474373245 8.083868233783503, 1.3489730277707044 6.02067580625951, 2.4872181365434702 4.576066540518458 C3.625463245316236 3.131457274777407, 6.554963352141448 1.6623450649030325, 7.690123151298576 0.9405080110115662 C8.825282950455705 0.2186709571201001, 9.004549723065082 0.1665333845688724, 9.298176931486237 0.24504421716966185 M8.712841003046792 0.22243034536304762 C10.77238301021194 -0.3213206055058233, 13.8409555265762 0.30239860024582776, 15.649495529612008 1.261928360690253 C17.458035532647816 2.221458121134678, 18.70317683806018 4.457382722026779, 19.564081021261636 5.979608908029599 C20.42498520446309 7.501835094032419, 21.439547442404173 8.951976823756066, 20.814920628820744 10.395285476707173 C20.190293815237315 11.83859412965828, 17.798941637795604 13.84118188299487, 15.816320139761054 14.639460825736236 C13.833698641726503 15.437739768477602, 11.164969846881315 15.670153727618072, 8.919191640613445 15.18495913315537 C6.673413434345575 14.69976453869267, 3.7198538662693625 13.041058850486616, 2.3416509021538356 11.72829325896003 C0.9634479380383085 10.415527667433443, 0.4568007547814026 8.995254296642091, 0.6499738559202815 7.308365583995851 C0.8431469570591603 5.621476871349611, 2.2369521512649335 3.03196540634878, 3.500689508987109 1.6069609830825868 C4.764426866709284 0.1819565598163937, 7.187662467829388 -0.8034380267658436, 8.232398002253333 -1.2416609556013078 C9.277133536677278 -1.679883884436772, 9.483908730680842 -1.5762774063850444, 9.76910271553078 -1.0223765899301984" stroke="#343a40" stroke-width="2" fill="none"></path>
  </g>
  <g transform="translate(84.66789667896751 180.00184501845024) rotate(0 10.190036900369023 8.249077490774908)">
    <path d="M11.860219183862318 -0.5358493299992304 C13.765190200648188 -0.3751196608414765, 16.373047863836764 2.0399811908705665, 17.881667323281427 3.467396204734369 C19.39028678272609 4.894811218598171, 20.970007525454953 6.3741978510801856, 20.911935940530306 8.028640753183582 C20.85386435560566 9.683083655286978, 19.269919168193276 11.901101283270812, 17.53323781373354 13.39405361735475 C15.796556459273804 14.887005951438688, 12.73294970178102 16.795909066176097, 10.491847813771892 16.986354757687216 C8.250745925762764 17.176800449198335, 5.701629939070282 15.59549812431864, 4.086626485678768 14.53672776642146 C2.4716230322872548 13.477957408524281, 1.1789463566226053 12.317791276402254, 0.8018270934228102 10.633732610304143 C0.4247078302230152 8.949673944206033, 0.9348205321554435 6.094753356514689, 1.8239109064799983 4.432375769832802 C2.713001280804553 2.769998183150916, 4.26846015674308 1.3199186834193037, 6.136369339370139 0.6594670902128232 C8.004278521997199 -0.0009845029936573768, 11.713620559890385 0.35784107503400175, 13.031366002242356 0.46966621059391844 C14.349111444594326 0.5814913461538351, 14.181991207381348 1.0758472441728606, 14.042841993481959 1.3304179035723234 M7.001752937516917 -0.12875736751380096 C8.488346726346862 -0.6658300330779494, 10.635405211257755 -0.7557982633556595, 12.518753568914459 -0.09336479606298553 C14.402101926571163 0.5690686712296884, 17.097099551730462 2.0093738333785884, 18.301843083457136 3.8458434362422427 C19.50658661518381 5.682313039105897, 20.167418770804673 9.334682574822393, 19.747214759274502 10.925452821118938 C19.327010747744332 12.516223067415483, 17.552258270289993 12.592765143115079, 15.780619014276123 13.390464914021514 C14.008979758262255 14.18816468492795, 11.331656130694158 15.501162032659414, 9.11737922319129 15.711651446557546 C6.90310231568842 15.922140860455679, 3.9749937901837162 15.823276053589048, 2.4949575692589114 14.653401397410313 C1.0149213483341069 13.483526741231579, 0.516018635698871 10.536094067325367, 0.2371618976424621 8.692403509485144 C-0.04169484041394672 6.848712951644922, -0.49233983867653675 5.152237033256255, 0.8218171409204587 3.59125805036898 C2.135974120517454 2.030279067481705, 7.1298632842125675 -0.2431454141901887, 8.122103775224435 -0.6734703878385071 C9.114344266236301 -1.1037953614868254, 6.977012246771822 0.4757685561217305, 6.775260086991663 1.0093082084790694" stroke="none" stroke-width="0" fill="#343a40"></path>
    <path d="M10.800456678956412 -0.701021890999753 C12.863309530507982 -0.8169833845511841, 15.812743294675752 0.0404833794753523, 17.426534690636373 1.1191479827631472 C19.040326086596995 2.197812586050942, 20.13219437828076 3.9532480382667154, 20.483205054720138 5.770965728727016 C20.834215731159514 7.5886834191873165, 20.56932769612788 10.42642014633737, 19.532598749272637 12.025454125524952 C18.495869802417396 13.624488104712535, 16.475818926058402 14.83522948330081, 14.2628313735887 15.365169603852511 C12.049843821118998 15.895109724404213, 8.326248343041375 15.814875909511478, 6.2546734344544195 15.205094848835163 C4.183098525867464 14.595313788158848, 2.785338504190936 12.940191003071497, 1.8333819220669643 11.706483239794618 C0.8814253399429924 10.47277547651774, 0.18906668839974855 9.349605942028681, 0.5429339417105883 7.802848269173885 C0.8968011950214281 6.256090596319089, 2.307282985203698 3.839680654309369, 3.9565854419320026 2.42593720266584 C5.605887898660307 1.0121937510223111, 9.088340638933332 -0.3276962512411776, 10.438748682080414 -0.6796124406872863 C11.789156725227496 -1.031528630133395, 12.130911423041585 0.04905127464942627, 12.059033700814492 0.3144400659891877 M5.764282810958884 -0.3130494276904079 C7.494123919684399 -0.7201893402729707, 10.49716195116922 0.17525570589102113, 12.527785439292405 1.0595414645770145 C14.55840892741559 1.9438272232630078, 16.583897930895695 3.4306783859209746, 17.948023739697994 4.992665124425552 C19.312149548500294 6.55465186293013, 20.871934222678274 8.719170705333514, 20.71254029210619 10.431461895604482 C20.553146361534107 12.14375308587545, 18.81716117771952 14.081471138618609, 16.991660156265493 15.266412266051354 C15.166159134811467 16.451353393484098, 11.744633657419955 17.828091073269114, 9.759534163382039 17.541108660200955 C7.774434669344122 17.254126247132795, 6.4245923051616 14.755260588335247, 5.08106319203799 13.544517787642391 C3.737534078914381 12.333774986949535, 2.282177439285617 11.855778835241171, 1.6983594846403829 10.27665185604382 C1.1145415299951487 8.697524876846469, 0.8445747766726651 5.692154227457684, 1.578155464166585 4.0697559124582785 C2.311736151660505 2.447357597458873, 5.300306947332683 0.930742940612513, 6.0998436096039015 0.542261966047386 C6.89938027187512 0.15378099148225904, 6.268788137273832 1.663512044572632, 6.375375437793892 1.738870065067517" stroke="#343a40" stroke-width="2" fill="none"></path>
  </g>
</svg>